<svg xmlns="http://www.w3.org/2000/svg" viewBox="0 0 192 192">
  <defs>
    <linearGradient id="g" x1="0%" y1="0%" x2="100%" y2="100%">
      <stop offset="0%" stop-color="#80e7c5"/>
      <stop offset="100%" stop-color="#3cc5ff"/>
    </linearGradient>
  </defs>
  <rect width="192" height="192" rx="48" fill="#08141f"/>
  <rect x="24" y="24" width="144" height="144" rx="38" fill="url(#g)"/>
  <path d="M53 125V67h15l27 30V67h15v58H95L68 94v31z" fill="#042436"/>
  <path d="M117 67h19c16 0 27 8 27 21 0 11-7 18-17 20l22 17h-20l-18-15h-6v15h-17zm19 29c6 0 10-3 10-8s-4-8-10-8h-12v16z" fill="#042436"/>
</svg>
